<?xml version="1.0" encoding="UTF-8" standalone="no"?>
<svg
   xmlns:dc="http://purl.org/dc/elements/1.1/"
   xmlns:cc="http://creativecommons.org/ns#"
   xmlns:rdf="http://www.w3.org/1999/02/22-rdf-syntax-ns#"
   xmlns:svg="http://www.w3.org/2000/svg"
   xmlns="http://www.w3.org/2000/svg"
   xmlns:sodipodi="http://sodipodi.sourceforge.net/DTD/sodipodi-0.dtd"
   xmlns:inkscape="http://www.inkscape.org/namespaces/inkscape"
   width="46.176235mm"
   height="46.169395mm"
   viewBox="0 0 46.176235 46.169397"
   version="1.1"
   id="svg8"
   inkscape:version="0.92.5 (2060ec1f9f, 2020-04-08)"
   sodipodi:docname="3DSV_logo.svg"
   inkscape:export-filename="/home/smathermather/backup/Documents/github/ODM360/3DSV_logo.png"
   inkscape:export-xdpi="96"
   inkscape:export-ydpi="96">
  <defs
     id="defs2" />
  <sodipodi:namedview
     id="base"
     pagecolor="#ffffff"
     bordercolor="#666666"
     borderopacity="1.0"
     inkscape:pageopacity="0.0"
     inkscape:pageshadow="2"
     inkscape:zoom="0.98994949"
     inkscape:cx="342.79731"
     inkscape:cy="-58.936485"
     inkscape:document-units="mm"
     inkscape:current-layer="layer1"
     inkscape:document-rotation="0"
     showgrid="false"
     inkscape:window-width="2488"
     inkscape:window-height="1376"
     inkscape:window-x="72"
     inkscape:window-y="27"
     inkscape:window-maximized="1"
     fit-margin-top="0"
     fit-margin-left="0"
     fit-margin-right="0"
     fit-margin-bottom="0" />
  <metadata
     id="metadata5">
    <rdf:RDF>
      <cc:Work
         rdf:about="">
        <dc:format>image/svg+xml</dc:format>
        <dc:type
           rdf:resource="http://purl.org/dc/dcmitype/StillImage" />
        <dc:title></dc:title>
      </cc:Work>
    </rdf:RDF>
  </metadata>
  <g
     inkscape:label="Layer 1"
     inkscape:groupmode="layer"
     id="layer1"
     transform="translate(186.6141,71.19566)">
    <g
       id="g146"
       transform="matrix(0.29255861,0,0,0.29255861,-196.9327,-82.256092)">
      <g
         id="g137">
        <path
           id="path10-6"
           style="fill:#f2f2f2;fill-rule:evenodd;stroke-width:0.26458299"
           d="m 109.4362,37.80596 a 78.917852,45.83041 88.785096 0 0 -0.49403,0.0057 78.917852,45.83041 88.785096 0 0 -44.146646,79.8716 78.917852,45.83041 88.785096 0 0 47.493216,77.92909 78.917852,45.83041 88.785096 0 0 36.14662,-32.7303 l -11.42307,3.27577 a 67.653045,36.265516 88.785096 0 1 -23.96908,18.02371 67.653045,36.265516 88.785096 0 1 -37.691739,-66.8693 67.653045,36.265516 88.785096 0 1 34.822669,-68.406157 67.653045,36.265516 88.785096 0 1 28.86438,24.813987 l 10.45311,2.786912 A 78.917852,45.83041 88.785096 0 0 109.4362,37.80596 Z m 35.35856,53.135775 a 67.653045,36.265516 88.785096 0 1 3.06648,24.613995 67.653045,36.265516 88.785096 0 1 0.005,0.21859 67.653045,36.265516 88.785096 0 1 -3.21376,30.44207 l 9.45369,-2.71094 a 78.917852,45.83041 88.785096 0 0 2.32957,-27.76523 78.917852,45.83041 88.785096 0 0 -0.007,-0.30954 h 5.2e-4 a 78.917852,45.83041 88.785096 0 0 -2.34611,-22.012612 z"
           inkscape:connector-curvature="0" />
        <g
           id="g131">
          <path
             id="path10"
             style="fill:#f2f2f2;fill-rule:evenodd;stroke-width:0.99999899"
             d="m 430.40625,278.39062 a 298.2722,173.2173 0 0 0 -96.08008,9.46485 283.78907,190.73327 85.607826 0 0 -13.85742,36.39258 255.69655,137.06652 0 0 1 109.72461,-13.47266 255.69655,137.06652 0 0 1 0.82617,0 255.69655,137.06652 0 0 1 176.35938,37.82031 l 28.3457,-23.27539 a 298.2722,173.2173 0 0 0 -204.14844,-46.92969 298.2722,173.2173 0 0 0 -1.16992,0 z m -160.92969,27.8125 a 298.2722,173.2173 0 0 0 -136.17187,145.4043 298.2722,173.2173 0 0 0 144.26758,148.3418 331.04709,241.035 85.43886 0 1 -15.6875,-49.3125 255.69655,137.06652 0 0 1 -86.56055,-102.79492 255.69655,137.06652 0 0 1 82.88672,-101.02344 331.04709,241.035 85.43886 0 1 11.26562,-40.61524 z m 442.84961,86.90626 -31.38281,25.77148 a 255.69655,137.06652 0 0 1 5.77344,28.96094 255.69655,137.06652 0 0 1 -255.69727,137.0664 255.69655,137.06652 0 0 1 -105.11523,-12.11718 283.78907,190.73327 85.607826 0 0 18.85547,44.5332 298.2722,173.2173 0 0 0 86.8164,7.5 298.2722,173.2173 0 0 0 298.27344,-173.2168 298.2722,173.2173 0 0 0 -17.52344,-58.49804 z"
             transform="scale(0.26458333)"
             inkscape:connector-curvature="0" />
          <path
             sodipodi:type="star"
             style="fill:#f2f2f2;stroke-width:0.26458299"
             id="path121"
             sodipodi:sides="3"
             sodipodi:cx="-64.129387"
             sodipodi:cy="42.671432"
             sodipodi:r1="32.807079"
             sodipodi:r2="16.40354"
             sodipodi:arg1="0.54268649"
             sodipodi:arg2="1.589884"
             inkscape:flatsided="false"
             inkscape:rounded="0"
             inkscape:randomized="0"
             inkscape:transform-center-x="0.43460687"
             inkscape:transform-center-y="-1.5149929"
             transform="matrix(-0.2436158,0.29821303,-0.38638188,-0.31564257,170.32591,126.41282)"
             d="M -36.035885,59.614267 -64.442473,59.071984 -92.849062,58.529701 -78.176138,34.200016 -63.503213,9.8703295 -49.769549,34.742298 Z" />
        </g>
      </g>
    </g>
  </g>
</svg>
